<svg width="336" height="72" viewBox="0 0 336 72" fill="none" xmlns="http://www.w3.org/2000/svg">
<path d="M21.2266 57.9816C21.2266 55.8703 22.9381 54.1587 25.0495 54.1587H31.4209C33.5323 54.1587 35.2438 55.8703 35.2438 57.9816C35.2438 60.0929 33.5323 61.8045 31.421 61.8045H25.0495C22.9381 61.8045 21.2266 60.0929 21.2266 57.9816Z" fill="#373737"/>
<path d="M23.1377 14.0182C23.1377 11.9069 24.8493 10.1953 26.9606 10.1953H31.6755C33.7868 10.1953 35.4984 11.9069 35.4984 14.0182C35.4984 16.1295 33.7868 17.8411 31.6755 17.8411H26.9606C24.8493 17.8411 23.1377 16.1295 23.1377 14.0182Z" fill="#373737"/>
<path d="M0.200195 43.3273C0.200195 41.216 1.91176 39.5044 4.02309 39.5044H41.2326C43.3439 39.5044 45.0555 41.216 45.0555 43.3273C45.0555 45.4386 43.3439 47.1502 41.2326 47.1502H4.02309C1.91176 47.1502 0.200195 45.4386 0.200195 43.3273Z" fill="#373737"/>
<path d="M9.50293 28.6725C9.50293 26.5612 11.2145 24.8496 13.3258 24.8496L41.233 24.8496C43.3443 24.8496 45.0559 26.5612 45.0559 28.6725C45.0559 30.7838 43.3443 32.4954 41.233 32.4954H13.3258C11.2145 32.4954 9.50293 30.7838 9.50293 28.6725Z" fill="#373737"/>
<path fill-rule="evenodd" clip-rule="evenodd" d="M59.2002 35.9999C59.2002 50.2513 47.462 61.8044 32.9822 61.8044C30.847 61.8044 28.7713 61.5532 26.7842 61.0791V54.1586H27.1674C29.1027 54.1586 30.6717 52.5897 30.6717 50.6543C30.6717 48.7189 29.1027 47.15 27.1674 47.15H26.7842V39.5462H32.1167C34.0521 39.5462 35.6211 37.9772 35.6211 36.0418C35.6211 34.1065 34.0521 32.5375 32.1167 32.5375H26.7842V24.8497H36.2388C38.1742 24.8497 39.7431 23.2808 39.7431 21.3454C39.7431 19.41 38.1742 17.8411 36.2388 17.8411H26.7842V10.9206C28.7713 10.4465 30.847 10.1953 32.9822 10.1953C47.462 10.1953 59.2002 21.7484 59.2002 35.9999Z" fill="#373737"/>
<path d="M91.1641 52.3174C89.2598 52.3174 87.4507 52.127 85.7368 51.7461C84.0441 51.3441 82.5524 50.667 81.2617 49.7148C79.9922 48.7627 78.9766 47.4932 78.2148 45.9062C77.4743 44.3193 77.104 42.3304 77.104 39.9395C77.104 37.5697 77.4108 35.5701 78.0244 33.9409C78.6592 32.2905 79.569 30.9575 80.7539 29.9419C81.96 28.9263 83.4305 28.1963 85.1655 27.752C86.9217 27.2865 88.9212 27.0537 91.1641 27.0537C93.4069 27.0537 95.3324 27.1912 96.9404 27.4663C98.5485 27.7202 99.9027 28.0482 101.003 28.4502C102.124 28.8522 103.034 29.2965 103.732 29.7832C104.452 30.2487 105.023 30.6825 105.446 31.0845V18.897C105.446 18.6219 105.446 18.3468 105.446 18.0718C105.467 17.7967 105.52 17.5534 105.605 17.3418C105.69 17.1302 105.806 16.9609 105.954 16.834C106.123 16.707 106.367 16.6436 106.684 16.6436C107.001 16.6436 107.245 16.707 107.414 16.834C107.583 16.9398 107.71 17.0879 107.795 17.2783C107.88 17.4688 107.932 17.7015 107.954 17.9766C107.975 18.2305 107.985 18.5161 107.985 18.8335V50.2861C107.985 50.9632 107.848 51.4181 107.573 51.6509C107.319 51.8836 107.044 52 106.748 52C106.388 52 106.081 51.8942 105.827 51.6826C105.573 51.471 105.446 51.0267 105.446 50.3496V45.938C105.214 46.8478 104.801 47.6413 104.208 48.3184C103.616 48.9743 102.907 49.535 102.082 50.0005C101.278 50.466 100.389 50.8574 99.416 51.1748C98.4427 51.471 97.4588 51.7038 96.4644 51.873C95.491 52.0423 94.5389 52.1587 93.6079 52.2222C92.6981 52.2856 91.8835 52.3174 91.1641 52.3174ZM91.1641 50.4448C92.4336 50.4237 93.8195 50.3285 95.3218 50.1592C96.8241 49.9688 98.2629 49.6408 99.6382 49.1753C101.014 48.7098 102.23 48.0645 103.288 47.2393C104.346 46.4141 105.065 45.335 105.446 44.002V32.5762C104.96 32.1953 104.335 31.7933 103.574 31.3701C102.833 30.9469 101.892 30.5555 100.749 30.1958C99.6276 29.8149 98.2734 29.5081 96.6865 29.2754C95.1208 29.0426 93.2799 28.9263 91.1641 28.9263C89.1328 28.9263 87.3872 29.1379 85.9272 29.561C84.4884 29.9842 83.293 30.6507 82.3408 31.5605C81.4098 32.4492 80.7222 33.5918 80.2778 34.9883C79.8547 36.3636 79.6431 38.014 79.6431 39.9395C79.6431 41.9495 79.9393 43.6317 80.5317 44.9858C81.1453 46.3188 81.9705 47.3874 83.0073 48.1914C84.0441 48.9954 85.2607 49.5773 86.6572 49.937C88.0749 50.2756 89.5771 50.4448 91.1641 50.4448ZM130.806 28.9263C128.839 28.9263 127.093 29.0955 125.57 29.4341C124.046 29.7726 122.745 30.3228 121.666 31.0845C120.608 31.825 119.783 32.7878 119.19 33.9727C118.598 35.1576 118.259 36.6069 118.175 38.3208H142.105V36.6069C142.105 35.549 141.904 34.5545 141.502 33.6235C141.121 32.6925 140.487 31.8779 139.598 31.1797C138.709 30.4814 137.546 29.9313 136.107 29.5293C134.668 29.1273 132.901 28.9263 130.806 28.9263ZM129.156 50.4448C131.166 50.4448 132.922 50.3179 134.425 50.064C135.927 49.8101 137.218 49.5033 138.297 49.1436C139.376 48.7839 140.254 48.4136 140.931 48.0327C141.629 47.6519 142.169 47.3345 142.55 47.0806C142.677 47.0382 142.761 47.0171 142.804 47.0171C143.036 47.0171 143.248 47.1335 143.438 47.3662C143.65 47.5778 143.756 47.8105 143.756 48.0645C143.756 48.2972 143.65 48.4876 143.438 48.6357C143.248 48.8262 142.835 49.1224 142.2 49.5244C141.587 49.9264 140.698 50.339 139.534 50.7622C138.371 51.1642 136.932 51.5239 135.218 51.8413C133.504 52.1587 131.473 52.3174 129.124 52.3174C126.67 52.3174 124.586 52.0106 122.872 51.397C121.158 50.7834 119.762 49.9264 118.682 48.8262C117.603 47.7259 116.82 46.4035 116.334 44.8589C115.847 43.3143 115.604 41.6216 115.604 39.7808C115.604 37.3263 115.995 35.2845 116.778 33.6553C117.561 32.026 118.63 30.7248 119.984 29.7515C121.359 28.757 122.967 28.0588 124.808 27.6567C126.67 27.2547 128.669 27.0537 130.806 27.0537C135.207 27.0537 138.498 27.9001 140.677 29.5928C142.878 31.2643 143.978 33.6659 143.978 36.7974C143.978 37.0936 143.957 37.4215 143.914 37.7812C143.872 38.141 143.809 38.4901 143.724 38.8286C143.66 39.146 143.576 39.4211 143.47 39.6538C143.385 39.8654 143.301 39.9712 143.216 39.9712H133.885L118.143 39.6538C118.185 41.6216 118.439 43.2931 118.905 44.6685C119.391 46.0226 120.089 47.1335 120.999 48.001C121.93 48.8473 123.073 49.4715 124.427 49.8735C125.781 50.2544 127.358 50.4448 129.156 50.4448ZM177.812 45.3667C177.812 44.2453 177.41 43.3778 176.606 42.7642C175.823 42.1506 174.776 41.7062 173.464 41.4312C172.173 41.1349 170.692 40.9551 169.021 40.8916C167.37 40.807 165.678 40.7435 163.942 40.7012C162.229 40.6377 160.536 40.5425 158.864 40.4155C157.214 40.2674 155.733 39.9818 154.421 39.5586C153.13 39.1143 152.083 38.4901 151.279 37.686C150.496 36.8608 150.105 35.7394 150.105 34.3218C150.105 32.8618 150.496 31.6663 151.279 30.7354C152.083 29.8044 153.13 29.0638 154.421 28.5137C155.712 27.9635 157.172 27.5827 158.801 27.3711C160.43 27.1595 162.091 27.0537 163.784 27.0537C166.556 27.0537 169.137 27.2865 171.528 27.752C173.919 28.1963 176.141 28.958 178.193 30.0371C178.405 30.1429 178.542 30.2804 178.606 30.4497C178.69 30.5978 178.743 30.7565 178.764 30.9258C178.764 31.2008 178.68 31.4442 178.51 31.6558C178.341 31.8674 178.151 31.9731 177.939 31.9731C177.812 31.9731 177.727 31.952 177.685 31.9097C175.887 30.9998 173.845 30.2804 171.56 29.7515C169.296 29.2013 166.746 28.9263 163.911 28.9263C162.472 28.9263 161.075 29.0215 159.721 29.2119C158.367 29.3812 157.161 29.6774 156.103 30.1006C155.066 30.5026 154.231 31.0527 153.596 31.751C152.961 32.4281 152.644 33.285 152.644 34.3218C152.644 35.3797 153.035 36.1943 153.818 36.7656C154.622 37.3369 155.669 37.7601 156.96 38.0352C158.272 38.2891 159.753 38.4478 161.403 38.5112C163.075 38.5747 164.768 38.6382 166.482 38.7017C168.217 38.7651 169.909 38.8815 171.56 39.0508C173.231 39.1989 174.712 39.5057 176.003 39.9712C177.315 40.4155 178.362 41.0715 179.145 41.939C179.949 42.7853 180.351 43.9279 180.351 45.3667C180.351 46.6574 179.949 47.7471 179.145 48.6357C178.341 49.5244 177.273 50.2438 175.94 50.7939C174.607 51.3229 173.062 51.7144 171.306 51.9683C169.571 52.201 167.772 52.3174 165.91 52.3174C164.768 52.3174 163.53 52.2856 162.197 52.2222C160.885 52.1799 159.563 52.0635 158.23 51.873C156.918 51.6615 155.648 51.3547 154.421 50.9526C153.215 50.5295 152.157 49.9582 151.247 49.2388C150.951 49.006 150.803 48.731 150.803 48.4136C150.803 48.1385 150.877 47.9058 151.025 47.7153C151.194 47.5037 151.395 47.3979 151.628 47.3979C151.797 47.3979 151.924 47.4403 152.009 47.5249C152.898 48.1385 153.85 48.6357 154.865 49.0166C155.902 49.3975 156.992 49.6937 158.134 49.9053C159.277 50.1169 160.472 50.265 161.721 50.3496C162.969 50.4131 164.26 50.4448 165.593 50.4448C167.18 50.4448 168.703 50.3708 170.163 50.2227C171.644 50.0534 172.946 49.7783 174.067 49.3975C175.21 48.9954 176.119 48.4771 176.796 47.8423C177.474 47.1864 177.812 46.3612 177.812 45.3667ZM201.173 60.728C203.352 60.728 205.172 60.4847 206.632 59.998C208.092 59.5326 209.255 58.7497 210.123 57.6494C211.012 56.5703 211.636 55.1209 211.996 53.3013C212.376 51.5028 212.567 49.2705 212.567 46.6045C212.334 47.472 211.953 48.2126 211.424 48.8262C210.895 49.4398 210.26 49.9582 209.52 50.3813C208.801 50.8045 208.007 51.1431 207.14 51.397C206.293 51.6509 205.426 51.8519 204.537 52C203.648 52.127 202.77 52.2116 201.903 52.2539C201.056 52.2962 200.274 52.3174 199.554 52.3174C197.269 52.3174 195.343 52.1164 193.778 51.7144C192.212 51.2912 190.942 50.5929 189.969 49.6196C188.996 48.6252 188.287 47.3239 187.843 45.7158C187.419 44.1077 187.208 42.1082 187.208 39.7173V29.9736C187.208 29.6986 187.218 29.4235 187.24 29.1484C187.261 28.8734 187.314 28.63 187.398 28.4185C187.483 28.2069 187.599 28.0376 187.747 27.9106C187.917 27.7625 188.149 27.6885 188.446 27.6885C188.763 27.6885 189.006 27.7625 189.176 27.9106C189.345 28.0376 189.472 28.2069 189.557 28.4185C189.641 28.63 189.694 28.8734 189.715 29.1484C189.736 29.4235 189.747 29.6986 189.747 29.9736V39.7173C189.747 41.7909 189.874 43.5153 190.128 44.8906C190.403 46.266 190.9 47.3662 191.62 48.1914C192.339 49.0166 193.333 49.5985 194.603 49.937C195.894 50.2756 197.544 50.4448 199.554 50.4448C200.76 50.4448 202.051 50.3602 203.426 50.1909C204.801 50.0216 206.103 49.7148 207.33 49.2705C208.578 48.8262 209.668 48.2126 210.599 47.4297C211.551 46.6468 212.207 45.6312 212.567 44.3828V29.9736C212.567 29.6986 212.577 29.4235 212.599 29.1484C212.641 28.8734 212.704 28.63 212.789 28.4185C212.874 28.2069 212.99 28.0376 213.138 27.9106C213.307 27.7625 213.519 27.6885 213.773 27.6885C214.09 27.6885 214.334 27.7625 214.503 27.9106C214.672 28.0376 214.799 28.2069 214.884 28.4185C214.989 28.63 215.053 28.8734 215.074 29.1484C215.095 29.4235 215.106 29.6986 215.106 29.9736V45.5571C215.106 48.8156 214.841 51.5345 214.312 53.7139C213.805 55.8932 212.99 57.6388 211.869 58.9507C210.747 60.2837 209.308 61.2253 207.552 61.7754C205.796 62.3255 203.669 62.6006 201.173 62.6006C199.395 62.6006 197.893 62.5054 196.666 62.3149C195.46 62.1245 194.434 61.8812 193.587 61.585C192.762 61.3099 192.074 60.9925 191.524 60.6328C190.974 60.2731 190.498 59.9346 190.096 59.6172C189.927 59.4479 189.842 59.2469 189.842 59.0142C189.842 58.7179 189.916 58.464 190.064 58.2524C190.234 58.062 190.488 57.9668 190.826 57.9668C190.995 57.9668 191.175 58.0303 191.366 58.1572C191.768 58.4535 192.233 58.7497 192.762 59.0459C193.312 59.3633 193.968 59.6383 194.73 59.8711C195.513 60.125 196.423 60.326 197.459 60.4741C198.517 60.6434 199.755 60.728 201.173 60.728ZM251.543 49.7148C251.543 49.9899 251.522 50.265 251.479 50.54C251.437 50.8151 251.363 51.0584 251.257 51.27C251.172 51.4816 251.045 51.6615 250.876 51.8096C250.707 51.9365 250.495 52 250.241 52C249.924 52 249.681 51.9365 249.511 51.8096C249.363 51.6615 249.247 51.4816 249.162 51.27C249.078 51.0584 249.025 50.8151 249.004 50.54C249.004 50.265 249.004 49.9899 249.004 49.7148V38.7334C249.004 37.083 248.877 35.6442 248.623 34.417C248.39 33.1898 247.914 32.1742 247.195 31.3701C246.496 30.5449 245.512 29.9313 244.243 29.5293C242.995 29.1273 241.355 28.9263 239.323 28.9263C238.075 28.9263 236.753 29.0321 235.356 29.2437C233.96 29.4341 232.627 29.7832 231.357 30.291C230.088 30.7777 228.966 31.4336 227.993 32.2588C227.02 33.084 226.342 34.1208 225.962 35.3691V49.7148C225.962 49.9899 225.951 50.265 225.93 50.54C225.909 50.8151 225.856 51.0584 225.771 51.27C225.687 51.4816 225.56 51.6615 225.39 51.8096C225.242 51.9365 225.041 52 224.787 52C224.491 52 224.248 51.9365 224.057 51.8096C223.888 51.6615 223.751 51.4816 223.645 51.27C223.56 51.0584 223.497 50.8151 223.454 50.54C223.433 50.265 223.423 49.9899 223.423 49.7148V29.1484C223.423 28.7887 223.497 28.4608 223.645 28.1646C223.793 27.8472 224.163 27.6885 224.756 27.6885C225.285 27.6885 225.613 27.8366 225.739 28.1328C225.888 28.4079 225.962 28.7464 225.962 29.1484V33.1475C226.554 31.7933 227.379 30.7142 228.437 29.9102C229.495 29.085 230.648 28.4714 231.897 28.0693C233.166 27.6462 234.446 27.3711 235.737 27.2441C237.049 27.1172 238.244 27.0537 239.323 27.0537C241.609 27.0537 243.523 27.2547 245.068 27.6567C246.634 28.0376 247.893 28.6829 248.845 29.5928C249.818 30.5026 250.506 31.7087 250.908 33.2109C251.331 34.6921 251.543 36.5329 251.543 38.7334V49.7148ZM274.84 28.9263C272.407 28.9263 270.333 29.1273 268.619 29.5293C266.905 29.9313 265.498 30.5767 264.398 31.4653C263.319 32.3328 262.525 33.4543 262.018 34.8296C261.51 36.2049 261.256 37.8553 261.256 39.7808C261.256 41.7274 261.531 43.3778 262.081 44.7319C262.652 46.0861 263.499 47.1864 264.62 48.0327C265.763 48.8791 267.18 49.4927 268.873 49.8735C270.566 50.2544 272.544 50.4448 274.808 50.4448C275.824 50.4448 276.85 50.3708 277.887 50.2227C278.945 50.0745 279.95 49.8947 280.902 49.6831C281.854 49.4504 282.732 49.1965 283.536 48.9214C284.34 48.6463 284.996 48.3818 285.504 48.1279C285.821 48.0221 286.043 47.9692 286.17 47.9692C286.445 47.9692 286.657 48.0539 286.805 48.2231C286.974 48.3713 287.059 48.5617 287.059 48.7944C287.059 48.9637 287.006 49.1436 286.9 49.334C286.795 49.5033 286.625 49.6514 286.393 49.7783C284.531 50.7305 282.605 51.397 280.616 51.7778C278.627 52.1375 276.702 52.3174 274.84 52.3174C272.428 52.3174 270.227 52.127 268.238 51.7461C266.271 51.3652 264.578 50.6987 263.16 49.7466C261.764 48.7944 260.674 47.5143 259.891 45.9062C259.108 44.2982 258.717 42.2563 258.717 39.7808C258.717 37.3263 259.076 35.2845 259.796 33.6553C260.515 32.026 261.563 30.7248 262.938 29.7515C264.313 28.757 265.995 28.0588 267.984 27.6567C269.994 27.2547 272.28 27.0537 274.84 27.0537C276.702 27.0537 278.627 27.2441 280.616 27.625C282.605 27.9847 284.531 28.6406 286.393 29.5928C286.625 29.7197 286.795 29.8784 286.9 30.0688C287.006 30.2381 287.059 30.4074 287.059 30.5767C287.059 30.8094 286.974 31.0104 286.805 31.1797C286.657 31.3278 286.445 31.4019 286.17 31.4019C286.043 31.4019 285.821 31.349 285.504 31.2432C284.996 30.9893 284.34 30.7248 283.536 30.4497C282.732 30.1746 281.854 29.9313 280.902 29.7197C279.95 29.487 278.945 29.2965 277.887 29.1484C276.85 29.0003 275.834 28.9263 274.84 28.9263Z" fill="#373737"/>
</svg>
