<svg width="1440" height="178" viewBox="0 0 1440 178" fill="none" xmlns="http://www.w3.org/2000/svg">
<path d="M0 44.7676L34.4 39.4584C68.8 34.049 137.6 23.4304 206.08 18.021C274.72 12.7117 342.88 12.7117 411.52 16.9191C480 21.0262 548.8 29.4409 617.28 24.9331C685.92 20.4252 754.08 2.9948 822.72 0.390253C891.2 -2.31446 960 9.7065 1028.48 15.9173C1097.12 22.028 1165.28 22.4287 1233.92 22.028C1302.4 21.7274 1371.2 20.7257 1405.6 20.2248L1440 19.724V178H1405.6C1371.2 178 1302.4 178 1233.92 178C1165.28 178 1097.12 178 1028.48 178C960 178 891.2 178 822.72 178C754.08 178 685.92 178 617.28 178C548.8 178 480 178 411.52 178C342.88 178 274.72 178 206.08 178C137.6 178 68.8 178 34.4 178H0V44.7676Z" fill="#373737"/>
<path d="M0 59.0053L34.4 55.0054C68.8 51.0056 137.6 43.006 206.08 38.8061C274.72 34.7063 342.88 34.3064 411.52 32.2065C480 30.0066 548.8 26.0067 617.28 32.7064C685.92 39.3061 754.08 56.7054 822.72 68.0049C891.2 79.3044 960 84.7041 1028.48 83.5042C1097.12 82.3042 1165.28 74.7046 1233.92 74.7046C1302.4 74.7046 1371.2 82.3042 1405.6 86.2041L1440 90.0039V178H1405.6C1371.2 178 1302.4 178 1233.92 178C1165.28 178 1097.12 178 1028.48 178C960 178 891.2 178 822.72 178C754.08 178 685.92 178 617.28 178C548.8 178 480 178 411.52 178C342.88 178 274.72 178 206.08 178C137.6 178 68.8 178 34.4 178H0V59.0053Z" fill="#2A2A2A"/>
<path d="M0 85.8827L34.4 90.3885C68.8 94.8942 137.6 103.906 206.08 104.707C274.72 105.608 342.88 98.1984 411.52 99.0996C480 99.9006 548.8 108.912 617.28 109.713C685.92 110.614 754.08 103.205 822.72 102.404C891.2 101.603 960 107.21 1028.48 102.904C1097.12 98.5989 1165.28 84.1806 1233.92 77.5721C1302.4 70.8636 1371.2 71.8649 1405.6 72.3655L1440 72.8661V178H1405.6C1371.2 178 1302.4 178 1233.92 178C1165.28 178 1097.12 178 1028.48 178C960 178 891.2 178 822.72 178C754.08 178 685.92 178 617.28 178C548.8 178 480 178 411.52 178C342.88 178 274.72 178 206.08 178C137.6 178 68.8 178 34.4 178H0V85.8827Z" fill="#1E1E1E"/>
<path d="M0 132L34.4 135.3C68.8 138.7 137.6 145.3 206.08 143.2C274.72 141 342.88 130 411.52 125.3C480 120.7 548.8 122.3 617.28 125C685.92 127.7 754.08 131.3 822.72 132.3C891.2 133.3 960 131.7 1028.48 134.2C1097.12 136.7 1165.28 143.3 1233.92 142C1302.4 140.7 1371.2 131.3 1405.6 126.7L1440 122V178H1405.6C1371.2 178 1302.4 178 1233.92 178C1165.28 178 1097.12 178 1028.48 178C960 178 891.2 178 822.72 178C754.08 178 685.92 178 617.28 178C548.8 178 480 178 411.52 178C342.88 178 274.72 178 206.08 178C137.6 178 68.8 178 34.4 178H0V132Z" fill="#3D3D3D"/>
</svg>
