<svg width="900" height="215" viewBox="0 0 900 215" fill="none" xmlns="http://www.w3.org/2000/svg">
<path d="M0 33.3127L9.3 34.3127C18.7 35.3127 37.3 37.3127 56.2 38.5127C75 39.6127 94 40.0127 112.8 37.8127C131.7 35.6127 150.3 31.0127 169 23.8127C187.7 16.6127 206.3 7.01267 225 2.81267C243.7 -1.38733 262.3 0.012671 281.2 1.31267C300 2.61267 319 4.01267 337.8 11.8127C356.7 19.6127 375.3 34.0127 394 40.8127C412.7 47.6127 431.3 47.0127 450 43.6127C468.7 40.3127 487.3 34.3127 506.2 32.0127C525 29.6127 544 31.0127 562.8 34.6127C581.7 38.3127 600.3 44.3127 619 39.6127C637.7 35.0127 656.3 19.6127 675 18.1127C693.7 16.6127 712.3 29.0127 731.2 27.3127C750 25.6127 769 10.0127 787.8 4.01268C806.7 -1.98732 825.3 1.61266 844 9.11266C862.7 16.6127 881.3 28.0127 890.7 33.6127L900 39.3127V214.313H890.7C881.3 214.313 862.7 214.313 844 214.313C825.3 214.313 806.7 214.313 787.8 214.313C769 214.313 750 214.313 731.2 214.313C712.3 214.313 693.7 214.313 675 214.313C656.3 214.313 637.7 214.313 619 214.313C600.3 214.313 581.7 214.313 562.8 214.313C544 214.313 525 214.313 506.2 214.313C487.3 214.313 468.7 214.313 450 214.313C431.3 214.313 412.7 214.313 394 214.313C375.3 214.313 356.7 214.313 337.8 214.313C319 214.313 300 214.313 281.2 214.313C262.3 214.313 243.7 214.313 225 214.313C206.3 214.313 187.7 214.313 169 214.313C150.3 214.313 131.7 214.313 112.8 214.313C94 214.313 75 214.313 56.2 214.313C37.3 214.313 18.7 214.313 9.3 214.313H0V33.3127Z" fill="black"/>
<path d="M0 60.3128L9.3 62.0129C18.7 63.6129 37.3 67.0128 56.2 70.3128C75 73.6128 94 77.0128 112.8 76.8128C131.7 76.6128 150.3 73.0129 169 70.5129C187.7 68.0129 206.3 66.6128 225 62.3128C243.7 58.0128 262.3 50.6129 281.2 53.0129C300 55.3129 319 67.3129 337.8 68.5129C356.7 69.6129 375.3 60.0129 394 60.5129C412.7 61.0129 431.3 71.6128 450 73.6128C468.7 75.6128 487.3 69.0128 506.2 65.1128C525 61.3128 544 60.3128 562.8 62.3128C581.7 64.3128 600.3 69.3128 619 71.1128C637.7 73.0128 656.3 71.6128 675 75.1128C693.7 78.6128 712.3 87.0128 731.2 89.1128C750 91.3128 769 87.3128 787.8 85.8128C806.7 84.3128 825.3 85.3129 844 86.0129C862.7 86.6129 881.3 87.0128 890.7 87.1128L900 87.3128V214.313H890.7C881.3 214.313 862.7 214.313 844 214.313C825.3 214.313 806.7 214.313 787.8 214.313C769 214.313 750 214.313 731.2 214.313C712.3 214.313 693.7 214.313 675 214.313C656.3 214.313 637.7 214.313 619 214.313C600.3 214.313 581.7 214.313 562.8 214.313C544 214.313 525 214.313 506.2 214.313C487.3 214.313 468.7 214.313 450 214.313C431.3 214.313 412.7 214.313 394 214.313C375.3 214.313 356.7 214.313 337.8 214.313C319 214.313 300 214.313 281.2 214.313C262.3 214.313 243.7 214.313 225 214.313C206.3 214.313 187.7 214.313 169 214.313C150.3 214.313 131.7 214.313 112.8 214.313C94 214.313 75 214.313 56.2 214.313C37.3 214.313 18.7 214.313 9.3 214.313H0V60.3128Z" fill="#4E4E4E"/>
<path d="M0 120.312L9.3 119.013C18.7 117.613 37.3 115.012 56.2 111.112C75 107.312 94 102.313 112.8 100.013C131.7 97.6125 150.3 98.0125 169 98.0125C187.7 98.0125 206.3 97.6125 225 96.1125C243.7 94.6125 262.3 92.0125 281.2 96.6125C300 101.312 319 113.313 337.8 118.513C356.7 123.613 375.3 122.012 394 122.612C412.7 123.312 431.3 126.312 450 123.112C468.7 120.012 487.3 110.612 506.2 107.312C525 104.012 544 106.613 562.8 108.312C581.7 110.013 600.3 110.612 619 111.312C637.7 112.013 656.3 112.612 675 113.812C693.7 115.013 712.3 116.612 731.2 115.812C750 115.013 769 111.612 787.8 108.812C806.7 106.012 825.3 103.613 844 101.013C862.7 98.3125 881.3 95.3125 890.7 93.8125L900 92.3125V214.312H890.7C881.3 214.312 862.7 214.312 844 214.312C825.3 214.312 806.7 214.312 787.8 214.312C769 214.312 750 214.312 731.2 214.312C712.3 214.312 693.7 214.312 675 214.312C656.3 214.312 637.7 214.312 619 214.312C600.3 214.312 581.7 214.312 562.8 214.312C544 214.312 525 214.312 506.2 214.312C487.3 214.312 468.7 214.312 450 214.312C431.3 214.312 412.7 214.312 394 214.312C375.3 214.312 356.7 214.312 337.8 214.312C319 214.312 300 214.312 281.2 214.312C262.3 214.312 243.7 214.312 225 214.312C206.3 214.312 187.7 214.312 169 214.312C150.3 214.312 131.7 214.312 112.8 214.312C94 214.312 75 214.312 56.2 214.312C37.3 214.312 18.7 214.312 9.3 214.312H0V120.312Z" fill="#A2A2A2"/>
<path d="M0 165.312L9.3 160.312C18.7 155.312 37.3 145.312 56.2 144.312C75 143.312 94 151.312 112.8 156.012C131.7 160.612 150.3 162.012 169 159.612C187.7 157.312 206.3 151.312 225 149.312C243.7 147.312 262.3 149.312 281.2 152.612C300 156.012 319 160.612 337.8 159.612C356.7 158.612 375.3 152.012 394 152.312C412.7 152.612 431.3 160.012 450 158.312C468.7 156.612 487.3 146.012 506.2 143.812C525 141.612 544 148.012 562.8 149.812C581.7 151.612 600.3 149.012 619 147.012C637.7 145.012 656.3 143.612 675 143.112C693.7 142.612 712.3 143.012 731.2 142.512C750 142.012 769 140.612 787.8 141.112C806.7 141.612 825.3 144.012 844 148.512C862.7 153.012 881.3 159.612 890.7 163.012L900 166.312V214.312H890.7C881.3 214.312 862.7 214.312 844 214.312C825.3 214.312 806.7 214.312 787.8 214.312C769 214.312 750 214.312 731.2 214.312C712.3 214.312 693.7 214.312 675 214.312C656.3 214.312 637.7 214.312 619 214.312C600.3 214.312 581.7 214.312 562.8 214.312C544 214.312 525 214.312 506.2 214.312C487.3 214.312 468.7 214.312 450 214.312C431.3 214.312 412.7 214.312 394 214.312C375.3 214.312 356.7 214.312 337.8 214.312C319 214.312 300 214.312 281.2 214.312C262.3 214.312 243.7 214.312 225 214.312C206.3 214.312 187.7 214.312 169 214.312C150.3 214.312 131.7 214.312 112.8 214.312C94 214.312 75 214.312 56.2 214.312C37.3 214.312 18.7 214.312 9.3 214.312H0V165.312Z" fill="white"/>
</svg>
