<svg width="908" height="223" viewBox="0 0 908 223" fill="none" xmlns="http://www.w3.org/2000/svg">
<g filter="url(#filter0_d_325_2107)">
<path d="M4 34.0002L13.3 35.0002C22.7 36.0002 41.3 38.0002 60.2 39.2002C79 40.3002 98 40.7002 116.8 38.5002C135.7 36.3002 154.3 31.7002 173 24.5002C191.7 17.3002 210.3 7.70017 229 3.50017C247.7 -0.699829 266.3 0.700171 285.2 2.00017C304 3.30017 323 4.70017 341.8 12.5002C360.7 20.3002 379.3 34.7002 398 41.5002C416.7 48.3002 435.3 47.7002 454 44.3002C472.7 41.0002 491.3 35.0002 510.2 32.7002C529 30.3002 548 31.7002 566.8 35.3002C585.7 39.0002 604.3 45.0002 623 40.3002C641.7 35.7002 660.3 20.3002 679 18.8002C697.7 17.3002 716.3 29.7002 735.2 28.0002C754 26.3002 773 10.7002 791.8 4.70018C810.7 -1.29982 829.3 2.30016 848 9.80016C866.7 17.3002 885.3 28.7002 894.7 34.3002L904 40.0002V215H894.7C885.3 215 866.7 215 848 215C829.3 215 810.7 215 791.8 215C773 215 754 215 735.2 215C716.3 215 697.7 215 679 215C660.3 215 641.7 215 623 215C604.3 215 585.7 215 566.8 215C548 215 529 215 510.2 215C491.3 215 472.7 215 454 215C435.3 215 416.7 215 398 215C379.3 215 360.7 215 341.8 215C323 215 304 215 285.2 215C266.3 215 247.7 215 229 215C210.3 215 191.7 215 173 215C154.3 215 135.7 215 116.8 215C98 215 79 215 60.2 215C41.3 215 22.7 215 13.3 215H4V34.0002Z" fill="black"/>
<path d="M4 61.0003L13.3 62.7004C22.7 64.3004 41.3 67.7003 60.2 71.0003C79 74.3003 98 77.7003 116.8 77.5003C135.7 77.3003 154.3 73.7004 173 71.2004C191.7 68.7004 210.3 67.3003 229 63.0003C247.7 58.7003 266.3 51.3004 285.2 53.7004C304 56.0004 323 68.0004 341.8 69.2004C360.7 70.3004 379.3 60.7004 398 61.2004C416.7 61.7004 435.3 72.3003 454 74.3003C472.7 76.3003 491.3 69.7003 510.2 65.8003C529 62.0003 548 61.0003 566.8 63.0003C585.7 65.0003 604.3 70.0003 623 71.8003C641.7 73.7003 660.3 72.3003 679 75.8003C697.7 79.3003 716.3 87.7003 735.2 89.8003C754 92.0003 773 88.0003 791.8 86.5003C810.7 85.0003 829.3 86.0004 848 86.7004C866.7 87.3004 885.3 87.7003 894.7 87.8003L904 88.0003V215H894.7C885.3 215 866.7 215 848 215C829.3 215 810.7 215 791.8 215C773 215 754 215 735.2 215C716.3 215 697.7 215 679 215C660.3 215 641.7 215 623 215C604.3 215 585.7 215 566.8 215C548 215 529 215 510.2 215C491.3 215 472.7 215 454 215C435.3 215 416.7 215 398 215C379.3 215 360.7 215 341.8 215C323 215 304 215 285.2 215C266.3 215 247.7 215 229 215C210.3 215 191.7 215 173 215C154.3 215 135.7 215 116.8 215C98 215 79 215 60.2 215C41.3 215 22.7 215 13.3 215H4V61.0003Z" fill="#4E4E4E"/>
<path d="M4 121L13.3 119.7C22.7 118.3 41.3 115.7 60.2 111.8C79 108 98 103 116.8 100.7C135.7 98.3 154.3 98.7 173 98.7C191.7 98.7 210.3 98.3 229 96.8C247.7 95.3 266.3 92.7 285.2 97.3C304 102 323 114 341.8 119.2C360.7 124.3 379.3 122.7 398 123.3C416.7 124 435.3 127 454 123.8C472.7 120.7 491.3 111.3 510.2 108C529 104.7 548 107.3 566.8 109C585.7 110.7 604.3 111.3 623 112C641.7 112.7 660.3 113.3 679 114.5C697.7 115.7 716.3 117.3 735.2 116.5C754 115.7 773 112.3 791.8 109.5C810.7 106.7 829.3 104.3 848 101.7C866.7 99 885.3 96 894.7 94.5L904 93V215H894.7C885.3 215 866.7 215 848 215C829.3 215 810.7 215 791.8 215C773 215 754 215 735.2 215C716.3 215 697.7 215 679 215C660.3 215 641.7 215 623 215C604.3 215 585.7 215 566.8 215C548 215 529 215 510.2 215C491.3 215 472.7 215 454 215C435.3 215 416.7 215 398 215C379.3 215 360.7 215 341.8 215C323 215 304 215 285.2 215C266.3 215 247.7 215 229 215C210.3 215 191.7 215 173 215C154.3 215 135.7 215 116.8 215C98 215 79 215 60.2 215C41.3 215 22.7 215 13.3 215H4V121Z" fill="#A2A2A2"/>
<path d="M4 166L13.3 161C22.7 156 41.3 146 60.2 145C79 144 98 152 116.8 156.7C135.7 161.3 154.3 162.7 173 160.3C191.7 158 210.3 152 229 150C247.7 148 266.3 150 285.2 153.3C304 156.7 323 161.3 341.8 160.3C360.7 159.3 379.3 152.7 398 153C416.7 153.3 435.3 160.7 454 159C472.7 157.3 491.3 146.7 510.2 144.5C529 142.3 548 148.7 566.8 150.5C585.7 152.3 604.3 149.7 623 147.7C641.7 145.7 660.3 144.3 679 143.8C697.7 143.3 716.3 143.7 735.2 143.2C754 142.7 773 141.3 791.8 141.8C810.7 142.3 829.3 144.7 848 149.2C866.7 153.7 885.3 160.3 894.7 163.7L904 167V215H894.7C885.3 215 866.7 215 848 215C829.3 215 810.7 215 791.8 215C773 215 754 215 735.2 215C716.3 215 697.7 215 679 215C660.3 215 641.7 215 623 215C604.3 215 585.7 215 566.8 215C548 215 529 215 510.2 215C491.3 215 472.7 215 454 215C435.3 215 416.7 215 398 215C379.3 215 360.7 215 341.8 215C323 215 304 215 285.2 215C266.3 215 247.7 215 229 215C210.3 215 191.7 215 173 215C154.3 215 135.7 215 116.8 215C98 215 79 215 60.2 215C41.3 215 22.7 215 13.3 215H4V166Z" fill="white"/>
</g>
<defs>
<filter id="filter0_d_325_2107" x="0" y="0.6875" width="908" height="222.312" filterUnits="userSpaceOnUse" color-interpolation-filters="sRGB">
<feFlood flood-opacity="0" result="BackgroundImageFix"/>
<feColorMatrix in="SourceAlpha" type="matrix" values="0 0 0 0 0 0 0 0 0 0 0 0 0 0 0 0 0 0 127 0" result="hardAlpha"/>
<feOffset dy="4"/>
<feGaussianBlur stdDeviation="2"/>
<feComposite in2="hardAlpha" operator="out"/>
<feColorMatrix type="matrix" values="0 0 0 0 0 0 0 0 0 0 0 0 0 0 0 0 0 0 0.25 0"/>
<feBlend mode="normal" in2="BackgroundImageFix" result="effect1_dropShadow_325_2107"/>
<feBlend mode="normal" in="SourceGraphic" in2="effect1_dropShadow_325_2107" result="shape"/>
</filter>
</defs>
</svg>
