<svg width="900" height="74" viewBox="0 0 900 74" fill="none" xmlns="http://www.w3.org/2000/svg">
<path d="M900 49.0004L890.7 54.0004C881.3 59.0004 862.7 69.0004 843.8 70.0004C825 71.0004 806 63.0004 787.2 58.3004C768.3 53.7004 749.7 52.3004 731 54.7004C712.3 57.0004 693.7 63.0004 675 65.0004C656.3 67.0004 637.7 65.0004 618.8 61.7004C600 58.3004 581 53.7004 562.2 54.7004C543.3 55.7004 524.7 62.3004 506 62.0004C487.3 61.7004 468.7 54.3004 450 56.0004C431.3 57.7004 412.7 68.3004 393.8 70.5004C375 72.7004 356 66.3004 337.2 64.5004C318.3 62.7004 299.7 65.3004 281 67.3004C262.3 69.3004 243.7 70.7004 225 71.2004C206.3 71.7004 187.7 71.3004 168.8 71.8004C150 72.3004 131 73.7004 112.2 73.2004C93.3 72.7004 74.7 70.3004 56 65.8004C37.3 61.3004 18.7 54.7004 9.29999 51.3004L0 48.0004V0.000404358H9.29999C18.7 0.000404358 37.3 0.000404358 56 0.000404358C74.7 0.000404358 93.3 0.000404358 112.2 0.000404358C131 0.000404358 150 0.000404358 168.8 0.000404358C187.7 0.000404358 206.3 0.000404358 225 0.000404358C243.7 0.000404358 262.3 0.000404358 281 0.000404358C299.7 0.000404358 318.3 0.000404358 337.2 0.000404358C356 0.000404358 375 0.000404358 393.8 0.000404358C412.7 0.000404358 431.3 0.000404358 450 0.000404358C468.7 0.000404358 487.3 0.000404358 506 0.000404358C524.7 0.000404358 543.3 0.000404358 562.2 0.000404358C581 0.000404358 600 0.000404358 618.8 0.000404358C637.7 0.000404358 656.3 0.000404358 675 0.000404358C693.7 0.000404358 712.3 0.000404358 731 0.000404358C749.7 0.000404358 768.3 0.000404358 787.2 0.000404358C806 0.000404358 825 0.000404358 843.8 0.000404358C862.7 0.000404358 881.3 0.000404358 890.7 0.000404358H900V49.0004Z" fill="white"/>
</svg>
